<svg width="675" height="120" viewBox="0 0 675 120" fill="none" xmlns="http://www.w3.org/2000/svg">
<path d="M316.399 64.8788L328.658 20.5259H364.095V98.5339H336.57V60.98L328.88 92.6286H303.913L296.224 60.98V98.5339H268.702V20.5259H304.141L316.399 64.8788Z" fill="white"/>
<path d="M368.336 22.5922C368.336 15.4603 373.684 10 382.155 10C390.625 10 395.974 15.4603 395.974 22.5922C395.974 29.6138 390.624 35.0757 382.155 35.0757C373.686 35.0757 368.336 29.6138 368.336 22.5922ZM369.45 39.2496H394.859V98.5358H369.45V39.2496Z" fill="white"/>
<path d="M535.313 22.5922C535.313 15.4603 540.662 10 549.132 10C557.603 10 562.949 15.4603 562.949 22.5922C562.949 29.6138 557.601 35.0757 549.132 35.0757C540.663 35.0757 535.313 29.6138 535.313 22.5922ZM536.428 39.2496H561.837V98.5358H536.428V39.2496Z" fill="white"/>
<path d="M466.393 98.5353H442.099V95.0815C437.947 98.3563 432.788 100.089 427.502 99.9846C409.67 99.9846 399.864 87.0577 399.864 68.781C399.864 50.6165 409.67 37.8018 427.502 37.8018C432.353 37.829 437.072 39.3887 440.984 42.2579V18.085H466.393V98.5353ZM433.407 57.7484C428.392 57.7484 425.266 62.4289 425.266 68.7846C425.266 75.694 428.385 79.8208 433.407 79.8208C438.867 79.8208 441.654 74.9179 441.654 68.7846C441.654 61.868 438.419 57.7484 433.407 57.7484Z" fill="white"/>
<path d="M531.024 60.6465V98.5351H505.617V63.543C505.617 60.0892 504.056 58.3054 501.492 58.3054C498.597 58.3054 497.369 60.869 497.369 63.543V98.5351H471.962V39.2525H496.256V44.1573C498.123 42.153 500.382 40.5546 502.893 39.4618C505.404 38.3689 508.114 37.805 510.853 37.8052C523.892 37.8052 531.024 46.8277 531.024 60.6465Z" fill="white"/>
<path d="M573.257 26.8809H597.991V39.2541H607.241V57.7533H597.991V75.2502C597.991 78.3693 601.002 79.1509 603.563 79.1509C604.908 79.1509 606.25 79.0389 607.576 78.8162V98.3177C604.365 99.0895 601.071 99.4638 597.769 99.4322C581.609 99.4322 572.582 91.8552 572.582 75.9123V57.7479H567.234V39.2541H573.252L573.257 26.8809Z" fill="white"/>
<path d="M636.442 74.6886C637.334 78.365 641.122 80.9286 645.803 80.9286C647.694 80.9613 649.572 80.6022 651.317 79.8736C653.063 79.1449 654.639 78.0627 655.945 76.6951L673.106 86.0559C669.781 90.5121 665.433 94.1037 660.43 96.5282C655.426 98.9527 649.913 100.139 644.356 99.9868C623.293 99.9868 611.256 85.3883 611.256 68.1157C611.256 51.29 624.072 37.6919 642.794 37.6919C662.965 37.6919 674.555 50.2841 674.555 68.3383C674.579 70.4606 674.467 72.5823 674.22 74.6904L636.442 74.6886ZM649.481 61.9842C649.434 60.4044 648.762 58.9079 647.613 57.8226C646.464 56.7374 644.931 56.152 643.351 56.1948C641.8 56.2131 640.314 56.8221 639.196 57.8977C638.078 58.9734 637.412 60.4348 637.334 61.9842H649.481Z" fill="white"/>
<path d="M175.975 0L156.745 20.7351V0H109.586L62.8107 50.7481L0 120H80.6192L97.85 101.852V119.948L146.976 119.946L164.206 101.818V119.948H223.103V0H175.975Z" fill="#B3FF66"/>
</svg>
